<?xml version="1.0"?>
<svg xmlns="http://www.w3.org/2000/svg" xmlns:xlink="http://www.w3.org/1999/xlink" xmlns:svgjs="http://svgjs.com/svgjs" version="1.1" width="512" height="512" x="0" y="0" viewBox="0 0 468.293 468.293" style="enable-background:new 0 0 512 512" xml:space="preserve" class=""><g>
<path xmlns="http://www.w3.org/2000/svg" style="" d="M209.097,62.543L209.097,62.543c0-6.548-5.308-11.856-11.856-11.856H53.75  c-6.548,0-11.856,5.308-11.856,11.856v4.586c0,5.303-4.299,9.602-9.602,9.602h0c-6.548,0-11.856,5.308-11.856,11.856v111.109h414.93  V76.73H223.285C215.449,76.73,209.097,70.378,209.097,62.543z" fill="#4d286b" data-original="#3ea69b" class=""/>
<rect xmlns="http://www.w3.org/2000/svg" x="46.742" y="99.753" style="" width="377.569" height="194.498" fill="#ebf0f3" data-original="#ebf0f3" class=""/>
<path xmlns="http://www.w3.org/2000/svg" style="" d="M444.582,417.606H23.711C10.616,417.606,0,406.99,0,393.895v-251.99  c0-13.095,10.616-23.711,23.711-23.711h254.614c9.738,0,18.486-5.954,22.058-15.014l11.532-29.25  c3.572-9.06,12.32-15.014,22.058-15.014h110.607c13.095,0,23.711,10.616,23.711,23.711v311.268  C468.293,406.99,457.677,417.606,444.582,417.606z" fill="#8244b5" data-original="#44c4a1" class=""/>
<g xmlns="http://www.w3.org/2000/svg">
</g>
<g xmlns="http://www.w3.org/2000/svg">
</g>
<g xmlns="http://www.w3.org/2000/svg">
</g>
<g xmlns="http://www.w3.org/2000/svg">
</g>
<g xmlns="http://www.w3.org/2000/svg">
</g>
<g xmlns="http://www.w3.org/2000/svg">
</g>
<g xmlns="http://www.w3.org/2000/svg">
</g>
<g xmlns="http://www.w3.org/2000/svg">
</g>
<g xmlns="http://www.w3.org/2000/svg">
</g>
<g xmlns="http://www.w3.org/2000/svg">
</g>
<g xmlns="http://www.w3.org/2000/svg">
</g>
<g xmlns="http://www.w3.org/2000/svg">
</g>
<g xmlns="http://www.w3.org/2000/svg">
</g>
<g xmlns="http://www.w3.org/2000/svg">
</g>
<g xmlns="http://www.w3.org/2000/svg">
</g>
</g></svg>
