<svg id="Capa_1" enable-background="new 0 0 512 512" height="512" viewBox="0 0 512 512" width="512" xmlns="http://www.w3.org/2000/svg"><g><g><g><g><g><g><g><path d="m75.535 109.796h43.037v78.135h-43.037z" fill="#c9e0fd" transform="matrix(-.707 .707 -.707 -.707 270.944 185.496)"/><g><path d="m72.777 89.197-35.389 35.389c-6.904 6.904-6.904 18.098 0 25.002 6.904 6.904 18.098 6.904 25.002 0l35.389-35.389c6.904-6.904 6.904-18.098 0-25.002-6.904-6.905-18.098-6.905-25.002 0z" fill="#ac80dd"/></g></g><g><path d="m375.879 127.344h78.135v43.037h-78.135z" fill="#c9e0fd" transform="matrix(-.707 .707 -.707 -.707 813.619 -39.288)"/><g><path d="m439.223 89.197 35.389 35.389c6.904 6.904 6.904 18.098 0 25.002-6.904 6.904-18.098 6.904-25.002 0l-35.389-35.389c-6.904-6.904-6.904-18.098 0-25.002 6.904-6.905 18.098-6.905 25.002 0z" fill="#ac80dd"/></g></g></g><g><path d="m230.135 31.86h51.731v91.777h-51.731z" fill="#c9e0fd"/><g><circle cx="256" cy="302.365" fill="#7fb2f9" r="209.635"/><circle cx="256" cy="302.365" fill="#fff" r="169.308"/><path d="m256 133.057c-9.654 0-19.115.82-28.328 2.372 80.019 13.481 140.981 83.084 140.981 166.936s-60.962 153.455-140.981 166.936c9.213 1.552 18.674 2.372 28.328 2.372 93.506 0 169.308-75.802 169.308-169.308s-75.802-169.308-169.308-169.308z" fill="#eaf2ff"/></g><path d="m265.021 49.446v-38.313c0-6.149-4.984-11.133-11.133-11.133h-40.707c-10.556 0-19.113 8.557-19.113 19.113v22.353c0 10.556 8.557 19.113 19.113 19.113h40.707c6.149-.001 11.133-4.985 11.133-11.133z" fill="#ac80dd"/><path d="m298.819 0h-48.536c6.149 0 11.133 4.984 11.133 11.133v38.313c0 6.149-4.984 11.133-11.133 11.133h48.536c10.556 0 19.113-8.557 19.113-19.113v-22.353c0-10.556-8.557-19.113-19.113-19.113z" fill="#9d66d5"/></g></g><g><g><g><path d="m162.452 405.005c-1.977 0-3.954-.754-5.463-2.263-3.017-3.018-3.018-7.909-.001-10.927l5.495-5.496c3.017-3.017 7.909-3.018 10.927-.001 3.017 3.018 3.018 7.909.001 10.927l-5.495 5.496c-1.509 1.509-3.487 2.264-5.464 2.264z" fill="#ac80dd"/></g></g><g><g><path d="m131.475 311.457h-7.772c-4.267 0-7.726-3.459-7.726-7.726s3.459-7.726 7.726-7.726h7.772c4.267 0 7.726 3.459 7.726 7.726 0 4.266-3.459 7.726-7.726 7.726z" fill="#ac80dd"/></g></g><g><g><path d="m349.548 405.005c-1.977 0-3.955-.755-5.464-2.263l-5.495-5.496c-3.017-3.018-3.017-7.909.001-10.927 3.018-3.017 7.909-3.016 10.927.001l5.495 5.496c3.017 3.018 3.017 7.909-.001 10.927-1.508 1.507-3.486 2.262-5.463 2.262z" fill="#ac80dd"/></g><g><path d="m167.947 223.404c-1.977 0-3.955-.755-5.463-2.263l-5.495-5.495c-3.018-3.017-3.018-7.909 0-10.927 3.017-3.017 7.909-3.017 10.927 0l5.495 5.495c3.018 3.017 3.018 7.909 0 10.927-1.509 1.508-3.486 2.263-5.464 2.263z" fill="#ac80dd"/></g></g><g><g><path d="m256 443.754c-4.267 0-7.726-3.459-7.726-7.726v-7.772c0-4.267 3.459-7.726 7.726-7.726s7.726 3.459 7.726 7.726v7.772c0 4.267-3.459 7.726-7.726 7.726z" fill="#ac80dd"/></g></g></g></g><g><path d="m256 178.728v123.637h123.637c2.646 0 4.782-2.195 4.684-4.84-2.485-67.071-56.411-120.997-123.482-123.482-2.644-.097-4.839 2.039-4.839 4.685z" fill="#db578e"/></g><path d="m384.322 297.526c-1.448-39.087-20.371-73.704-49.18-96.283 21.049 28.216 33.512 63.212 33.512 101.122h10.984c2.646 0 4.782-2.194 4.684-4.839z" fill="#da4093"/></g><circle cx="256" cy="302.365" fill="#ac80dd" r="19.522"/></g></g></svg>